# xmcd
#
# Track frame offsets:
#	150
#	10426
#	20359
#	29302
#	43567
#	51762
#	60515
#	71015
#	79644
#	93055
#	104330
#	115102
#	124425
#	132918
#	142353
#	153225
#	164533
#	177786
#	189154
#	200310
#	211580
#	223461
#	233809
#	244590
#	258450
#
# Disc length: 3596 seconds
#
# Revision: 1
# Processed by: cddbd v1.5.2PL0 Copyright (c) Steve Scherf et al.
# Submitted via: audiograbber 1.83.01
#
DISCID=5c0e0a19
DTITLE=Ivan Mladek - Banjo Band Story 2 CD2
DYEAR=2007
DGENRE=Country
TTITLE0=Dasa jedla cukrovi
TTITLE1=14 kubiku
TTITLE2=Svadlenka Madlenka
TTITLE3=Psohlavci
TTITLE4=Znojmo, vidim te dvojmo
TTITLE5=Usni prihoda
TTITLE6=Koukejte vycouvat
TTITLE7=Jahody trhala
TTITLE8=Kam s nim
TTITLE9=Pojd se mnou, brouku
TTITLE10=V motelu v Motole
TTITLE11=Krychle
TTITLE12=Drevorubecke zavody
TTITLE13=Mister banjo (Mistr Banjo)
TTITLE14=V udoli u Metuje
TTITLE15=Dzinovy velorex
TTITLE16=Jak jsem tapetoval pokoj
TTITLE17=Kdyz je v Praze hic
TTITLE18=Devatenacteho treti
TTITLE19=Banjo rag
TTITLE20=Lizatko (Suggar)
TTITLE21=Liska podsita
TTITLE22=Divka s dolicky
TTITLE23=Mojmir a Mlhos
TTITLE24=Sel tudy, mel banjo
EXTD=
EXTT0=
EXTT1=
EXTT2=
EXTT3=
EXTT4=
EXTT5=
EXTT6=
EXTT7=
EXTT8=
EXTT9=
EXTT10=
EXTT11=
EXTT12=
EXTT13=
EXTT14=
EXTT15=
EXTT16=
EXTT17=
EXTT18=
EXTT19=
EXTT20=
EXTT21=
EXTT22=
EXTT23=
EXTT24=
PLAYORDER=
